<?xml version="1.0" standalone="no"?>
<!DOCTYPE svg PUBLIC "-//W3C//DTD SVG 20010904//EN"
 "http://www.w3.org/TR/2001/REC-SVG-20010904/DTD/svg10.dtd">
<svg version="1.0" xmlns="http://www.w3.org/2000/svg"
 width="512.000000pt" height="512.000000pt" viewBox="0 0 512.000000 512.000000"
 preserveAspectRatio="xMidYMid meet">
<metadata>
Created by potrace 1.14, written by Peter Selinger 2001-2017
</metadata>
<g transform="translate(0.000000,512.000000) scale(0.100000,-0.100000)"
fill="#000000" stroke="none">
<path d="M157 4266 c-42 -16 -62 -29 -95 -66 -44 -47 -56 -81 -56 -155 0 -57
4 -78 24 -110 55 -88 96 -108 309 -151 92 -18 213 -44 271 -59 58 -14 116 -28
130 -31 141 -28 601 -179 839 -274 297 -118 678 -301 854 -408 37 -23 69 -42
72 -42 6 0 183 -112 290 -183 262 -175 446 -336 560 -492 17 -22 32 -42 35
-45 3 -3 17 -21 30 -40 13 -19 30 -41 37 -48 7 -7 13 -16 13 -20 0 -4 21 -30
48 -57 168 -178 430 -278 727 -277 139 0 194 8 320 42 322 87 555 334 555 590
0 102 -76 201 -176 229 -13 3 -117 124 -247 286 -123 154 -235 290 -248 302
-101 91 -288 97 -393 13 -20 -15 -106 -115 -191 -221 -86 -107 -170 -212 -188
-233 -17 -21 -36 -45 -40 -52 -12 -21 -17 -18 -77 37 -63 57 -88 66 -127 47
-27 -14 -31 -12 -99 42 -61 49 -70 59 -63 78 19 51 -6 75 -236 229 -254 169
-440 275 -750 427 -180 89 -245 119 -380 176 -11 4 -37 15 -57 24 -21 9 -68
28 -105 42 -38 13 -77 29 -88 34 -109 49 -622 209 -820 256 -33 8 -67 16 -75
18 -44 12 -306 69 -375 82 -123 23 -186 26 -228 10z"/>
<path d="M3910 1569 c-49 -49 -60 -66 -60 -93 0 -38 23 -63 67 -72 26 -5 37 0
85 48 31 29 61 63 67 75 24 48 -14 103 -71 103 -21 0 -43 -16 -88 -61z"/>
<path d="M4352 1367 c-39 -41 -29 -73 41 -144 72 -71 98 -78 141 -38 42 39 31
77 -43 148 -67 65 -102 73 -139 34z"/>
<path d="M4116 969 c-52 -41 -19 -129 49 -129 62 0 93 78 49 125 -28 30 -62
32 -98 4z"/>
</g>
</svg>
